<?xml version="1.0" encoding="UTF-8"?>
<svg width="512" height="512" viewBox="0 0 512 512" fill="none" xmlns="http://www.w3.org/2000/svg">
  <rect width="512" height="512" rx="256" fill="#7E22CE"/>
  <path d="M346.667 170.667H165.333C153.867 170.667 144.667 179.867 144.667 191.333V320.667C144.667 332.133 153.867 341.333 165.333 341.333H346.667C358.133 341.333 367.333 332.133 367.333 320.667V191.333C367.333 179.867 358.133 170.667 346.667 170.667ZM256 298.667C234.667 298.667 217.333 281.333 217.333 260C217.333 238.667 234.667 221.333 256 221.333C277.333 221.333 294.667 238.667 294.667 260C294.667 281.333 277.333 298.667 256 298.667Z" fill="white"/>
</svg>